<svg width="92" height="33" viewBox="0 0 92 33" fill="none" xmlns="http://www.w3.org/2000/svg">
<path fillRule="evenodd" clipRule="evenodd" d="M84.0765 5.12443C88.3538 5.12443 91.1175 8.01786 91.1175 12.4963C91.1175 16.9584 88.3538 19.8421 84.0765 19.8421C79.8148 19.8421 77.0612 16.9584 77.0612 12.4963C77.0612 8.01786 79.8148 5.12443 84.0765 5.12443ZM84.0764 16.5991C86.6834 16.5991 87.0728 14.0286 87.0728 12.4963C87.0728 10.954 86.6834 8.36681 84.0764 8.36681C81.4921 8.36681 81.1058 10.954 81.1058 12.4963C81.1058 14.0286 81.4921 16.5991 84.0764 16.5991ZM88.5665 0.455167C88.5955 0.53023 88.5758 0.615635 88.5181 0.670014L85.0082 3.98513C84.9732 4.01816 84.9265 4.03684 84.8788 4.03684H82.6222C82.5515 4.03684 82.4868 3.99681 82.4535 3.93309C82.4205 3.86937 82.4245 3.79163 82.4642 3.73158L84.6518 0.416468C84.6875 0.362756 84.7468 0.330395 84.8105 0.330395H88.3885C88.4675 0.330395 88.5378 0.380104 88.5665 0.455167ZM75.3232 0.549596V19.2553C75.3232 19.3767 75.2278 19.4752 75.1098 19.4752H71.2431C71.1252 19.4752 71.0292 19.3767 71.0292 19.2553V0.549596C71.0292 0.42816 71.1252 0.330078 71.2431 0.330078H75.1098C75.2278 0.330078 75.3232 0.42816 75.3232 0.549596ZM69.1408 12.7238V12.7675C69.1408 13.2306 68.7762 13.6052 68.3261 13.6052L68.2288 13.6066H59.6275C59.7782 15.6466 60.7385 16.5991 62.6365 16.5991C63.9068 16.5991 64.9602 15.8464 65.2445 15.1185C65.2818 15.0231 65.3792 14.9657 65.4778 14.984L68.4765 15.4938C68.5408 15.5048 68.5965 15.5448 68.6282 15.6036C68.6601 15.6619 68.6642 15.7317 68.6395 15.7937C67.5712 18.48 65.5085 19.8421 62.5088 19.8421C58.3585 19.8421 55.5702 16.89 55.5702 12.4963C55.5702 8.2247 58.4882 5.12443 62.5088 5.12443C64.4052 5.12443 66.0305 5.81101 67.2085 7.10943C68.4612 8.48959 69.1498 10.508 69.1408 12.7238ZM59.6395 10.8095H65.0262C64.6658 9.07874 63.8938 8.36681 62.4075 8.36681C60.2458 8.36681 59.7515 10.0159 59.6395 10.8095ZM54.1808 14.5557C54.2138 14.6054 54.2258 14.6661 54.2135 14.7252C53.5418 17.9769 51.1922 19.8421 47.7665 19.8421C43.7258 19.8421 40.9039 16.8967 40.9039 12.6798C40.9039 8.09026 43.6275 5.12443 47.8432 5.12443C51.2372 5.12443 53.7245 6.97632 54.1792 9.8434C54.1982 9.96283 54.1188 10.0756 54.0028 10.0953L50.5255 10.6861C50.4692 10.6954 50.4115 10.6821 50.3652 10.6474C50.3188 10.613 50.2885 10.5613 50.2792 10.5033C50.0632 9.06574 49.2578 8.36682 47.8172 8.36682C45.0872 8.36682 44.9488 11.8501 44.9488 12.5483C44.9488 14.507 45.6822 16.5991 47.7412 16.5991C49.6408 16.5991 50.2365 15.2242 50.4022 14.0713C50.4108 14.0129 50.4418 13.9605 50.4878 13.9258C50.5342 13.8911 50.5922 13.8768 50.6485 13.8865L54.0392 14.4629C54.0965 14.4723 54.1482 14.506 54.1808 14.5557ZM41.2575 5.50475L40.0102 8.88559C39.9792 8.96966 39.9025 9.02538 39.8152 9.02738C37.6669 9.07675 36.5775 10.4642 36.5775 13.1512V19.2553C36.5775 19.3767 36.4819 19.4751 36.3639 19.4751H32.7466C32.6286 19.4751 32.5332 19.3767 32.5332 19.2553V5.71059C32.5332 5.58916 32.6286 5.49107 32.7466 5.49107H36.1859C36.3039 5.49107 36.3992 5.58916 36.3992 5.71059V7.27257C37.1405 5.94446 38.5789 5.12443 40.4399 5.12443C40.6555 5.12443 40.8745 5.15346 41.1095 5.21384C41.1689 5.22919 41.2189 5.26956 41.2472 5.32493C41.2755 5.38065 41.2792 5.44637 41.2575 5.50475ZM30.3092 9.19518L30.3102 19.2553C30.3102 19.3767 30.2149 19.4751 30.0969 19.4751H26.4736C26.3556 19.4751 26.2599 19.3767 26.2599 19.2553C26.2599 18.9277 26.2639 18.7225 26.2676 18.5637L26.2696 18.449C25.2242 19.3854 23.8869 19.8421 22.1986 19.8421C19.3012 19.8421 17.5016 18.2017 17.5016 15.5612C17.5329 11.7544 20.7177 11.3825 23.2775 11.0836L23.2789 11.0834C25.1629 10.8629 26.3152 10.6774 26.2649 9.67826C26.2646 8.32245 25.4496 8.05256 24.1346 8.05256C22.7652 8.05256 22.0732 8.62971 21.9559 9.86908C21.9506 9.92947 21.9206 9.98485 21.8739 10.0219C21.8266 10.0589 21.7672 10.0743 21.7086 10.0642L18.1602 9.46141C18.1039 9.45173 18.0539 9.41937 18.0209 9.37133C17.9879 9.32363 17.9749 9.26391 17.9852 9.20586C18.4382 6.61168 20.7449 5.12443 24.3132 5.12443C28.2919 5.12443 30.3092 6.49425 30.3092 9.19518ZM23.5486 16.9133C25.3762 16.9133 26.2646 15.9655 26.2646 14.0156V13.0347C25.7586 13.299 25.0722 13.396 24.3546 13.4975L24.3129 13.5034C24.0459 13.5412 23.7713 13.5801 23.5102 13.6292C22.1152 13.8904 21.5462 14.4049 21.5462 15.4041C21.5462 16.4199 22.2012 16.9133 23.5486 16.9133ZM15.3666 5.18682C15.3666 6.89726 14.6632 8.16299 13.2196 9.04139C15.1676 9.79969 16.2329 11.4821 16.2329 13.8321C16.2329 17.9972 12.6592 19.4752 9.59958 19.4752H0.785261C0.667261 19.4752 0.571594 19.3767 0.571594 19.2553V0.549596C0.571594 0.42816 0.667261 0.330078 0.785261 0.330078H9.34458C13.3969 0.330078 15.3666 1.91841 15.3666 5.18682ZM8.83491 7.90143C9.85357 7.90143 11.0672 7.55314 11.0672 5.89442C11.0672 4.57831 10.2609 3.96546 8.52924 3.96546H4.99825V7.90143H8.83491ZM9.06458 15.8394C10.9092 15.8394 11.8059 15.1058 11.8059 13.5966C11.8059 11.9462 10.9342 11.1442 9.14091 11.1442H4.99825V15.8394H9.06458ZM18.3122 28.649V26.4254H17.2019V32.2407H18.3122V29.6588H19.6076V32.2407H20.7176V26.4254H19.6076V28.649H18.3122ZM24.1602 30.9986C24.1059 30.8275 24.0702 30.6049 24.0522 30.3307C24.0342 30.0565 24.0252 29.7242 24.0252 29.3329C24.0252 28.9419 24.0342 28.6109 24.0522 28.3394C24.0702 28.0678 24.1059 27.8456 24.1602 27.6715C24.2142 27.498 24.2912 27.3716 24.3916 27.2928C24.4919 27.2141 24.6242 27.1747 24.7886 27.1747C24.9529 27.1747 25.0856 27.2141 25.1859 27.2928C25.2859 27.3716 25.3632 27.498 25.4169 27.6715C25.4709 27.8456 25.5066 28.0678 25.5249 28.3394C25.5426 28.6109 25.5519 28.9419 25.5519 29.3329C25.5519 29.7242 25.5426 30.0565 25.5249 30.3307C25.5066 30.6049 25.4709 30.8275 25.4169 30.9986C25.3632 31.1697 25.2859 31.2945 25.1859 31.3729C25.0856 31.452 24.9529 31.4913 24.7886 31.4913C24.6242 31.4913 24.4919 31.452 24.3916 31.3729C24.2912 31.2945 24.2142 31.1697 24.1602 30.9986ZM23.2272 27.1587C23.0966 27.4246 23.0116 27.7439 22.9729 28.1155C22.9342 28.4875 22.9149 28.8932 22.9149 29.3329C22.9149 29.7783 22.9342 30.1856 22.9729 30.5546C23.0116 30.9239 23.0966 31.2418 23.2272 31.5074C23.3582 31.7736 23.5472 31.9771 23.7939 32.1185C24.0409 32.2597 24.3722 32.3301 24.7886 32.3301C25.2049 32.3301 25.5366 32.2597 25.7832 32.1185C26.0296 31.9771 26.2189 31.7736 26.3499 31.5074C26.4809 31.2418 26.5656 30.9239 26.6042 30.5546C26.6429 30.1856 26.6619 29.7783 26.6619 29.3329C26.6619 28.8932 26.6429 28.4875 26.6042 28.1155C26.5656 27.7439 26.4809 27.4246 26.3499 27.1587C26.2189 26.8925 26.0296 26.6847 25.7832 26.5355C25.5366 26.3861 25.2049 26.3113 24.7886 26.3113C24.3722 26.3113 24.0409 26.3861 23.7939 26.5355C23.5472 26.6847 23.3582 26.8925 23.2272 27.1587ZM30.8795 27.3866H32.0822V26.4254H28.5665V27.3866H29.7692V32.2407H30.8795V27.3866ZM35.2122 27.3866H37.1785V26.4254H34.1022V32.2407H37.2555V31.2798H35.2122V29.7159H37.0625V28.7547H35.2122V27.3866ZM40.4629 26.4254H39.3525V32.2407H42.4292V31.2798H40.4629V26.4254ZM50.1542 27.5047C50.2055 27.5998 50.2428 27.7042 50.2658 27.8183C50.2888 27.9324 50.3005 28.0435 50.3005 28.1522H51.3645C51.3645 27.5604 51.2308 27.1053 50.9638 26.7877C50.6965 26.4705 50.2595 26.3113 49.6528 26.3113C49.2985 26.3113 49.0028 26.3741 48.7662 26.4988C48.5298 26.6239 48.3398 26.8098 48.1958 27.0566C48.0522 27.3038 47.9505 27.6118 47.8915 27.9811C47.8322 28.3504 47.8025 28.7791 47.8025 29.2682C47.8025 29.7729 47.8232 30.2166 47.8645 30.5993C47.9052 30.9823 47.9865 31.3042 48.1072 31.5644C48.2282 31.8253 48.3952 32.0181 48.6082 32.1429C48.8218 32.2677 49.0978 32.3301 49.4372 32.3301C49.6992 32.3301 49.9238 32.2827 50.1118 32.1873C50.2995 32.0925 50.4598 31.9311 50.5938 31.7029H50.6092V32.2407H51.4262V29.105H49.6302V29.9684H50.3625V30.5629C50.3625 30.7204 50.3392 30.8575 50.2928 30.9743C50.2468 31.0907 50.1888 31.1871 50.1195 31.2632C50.0498 31.3396 49.9758 31.3963 49.8958 31.4343C49.8162 31.472 49.7428 31.4914 49.6762 31.4914C49.5168 31.4914 49.3872 31.4383 49.2868 31.3326C49.1868 31.2265 49.1095 31.075 49.0555 30.8765C49.0015 30.6783 48.9642 30.4378 48.9438 30.1559C48.9232 29.873 48.9128 29.5587 48.9128 29.2108C48.9128 28.4835 48.9718 27.9621 49.0902 27.6471C49.2085 27.3322 49.4012 27.1747 49.6685 27.1747C49.7815 27.1747 49.8778 27.2061 49.9575 27.2685C50.0372 27.3312 50.1028 27.4099 50.1542 27.5047ZM56.8158 26.7957C56.5585 26.5492 56.1988 26.4254 55.7362 26.4254H53.6855V32.2407H54.7955V29.7809H55.3892C55.6205 29.7809 55.7849 29.8463 55.8829 29.9764C55.9802 30.1069 56.0345 30.286 56.0445 30.5142L56.0755 31.6298C56.0808 31.7439 56.0909 31.8537 56.1062 31.9594C56.1218 32.0652 56.1575 32.1593 56.2145 32.2407H57.4172V32.1919C57.3142 32.1319 57.2475 32.0205 57.2165 31.858C57.1959 31.6949 57.1802 31.4587 57.1702 31.1491C57.1652 30.9919 57.1599 30.8491 57.1549 30.7214C57.1498 30.5943 57.1422 30.4762 57.1319 30.3671C57.1008 30.0415 57.0212 29.8053 56.8925 29.6588C56.7642 29.5124 56.5612 29.4173 56.2835 29.3736V29.3576C56.5972 29.2872 56.8285 29.128 56.9775 28.8808C57.1265 28.634 57.2012 28.315 57.2012 27.9244C57.2012 27.4189 57.0725 27.0433 56.8158 26.7957ZM55.8748 28.7671C55.7308 28.9002 55.5255 28.9666 55.2582 28.9666H54.7955V27.2888H55.3195C55.8335 27.2888 56.0908 27.5574 56.0908 28.0952C56.0908 28.4101 56.0188 28.6339 55.8748 28.7671ZM60.6438 30.9986C60.5898 30.8275 60.5538 30.6049 60.5355 30.3307C60.5178 30.0565 60.5085 29.7242 60.5085 29.3329C60.5085 28.9419 60.5178 28.6109 60.5355 28.3394C60.5538 28.0678 60.5898 27.8456 60.6438 27.6715C60.6975 27.498 60.7748 27.3716 60.8748 27.2928C60.9752 27.2141 61.1075 27.1747 61.2722 27.1747C61.4365 27.1747 61.5692 27.2141 61.6692 27.2928C61.7695 27.3716 61.8465 27.498 61.9005 27.6715C61.9545 27.8456 61.9905 28.0678 62.0082 28.3394C62.0262 28.6109 62.0352 28.9419 62.0352 29.3329C62.0352 29.7242 62.0262 30.0565 62.0082 30.3307C61.9905 30.6049 61.9545 30.8275 61.9005 30.9986C61.8465 31.1697 61.7695 31.2945 61.6692 31.3729C61.5692 31.452 61.4365 31.4913 61.2722 31.4913C61.1075 31.4913 60.9752 31.452 60.8748 31.3729C60.7748 31.2945 60.6975 31.1697 60.6438 30.9986ZM59.7108 27.1587C59.5798 27.4246 59.4948 27.7439 59.4562 28.1155C59.4175 28.4875 59.3982 28.8932 59.3982 29.3329C59.3982 29.7783 59.4175 30.1856 59.4562 30.5546C59.4948 30.9239 59.5798 31.2418 59.7108 31.5074C59.8415 31.7736 60.0308 31.9771 60.2775 32.1185C60.5242 32.2597 60.8558 32.3301 61.2722 32.3301C61.6885 32.3301 62.0198 32.2597 62.2665 32.1185C62.5135 31.9771 62.7022 31.7736 62.8332 31.5074C62.9645 31.2418 63.0492 30.9239 63.0875 30.5546C63.1262 30.1856 63.1455 29.7783 63.1455 29.3329C63.1455 28.8932 63.1262 28.4875 63.0875 28.1155C63.0492 27.7439 62.9645 27.4246 62.8332 27.1587C62.7022 26.8925 62.5135 26.6847 62.2665 26.5355C62.0198 26.3861 61.6885 26.3113 61.2722 26.3113C60.8558 26.3113 60.5242 26.3861 60.2775 26.5355C60.0308 26.6847 59.8415 26.8925 59.7108 27.1587ZM66.4105 30.8845C66.3925 30.7624 66.3838 30.628 66.3838 30.4812V26.4254H65.2735V30.4812C65.2735 30.8725 65.3222 31.1901 65.4198 31.4343C65.5175 31.6785 65.6485 31.8673 65.8132 32.0004C65.9775 32.1336 66.1652 32.222 66.3762 32.265C66.5865 32.3084 66.8052 32.3301 67.0315 32.3301C67.2575 32.3301 67.4758 32.3057 67.6868 32.2567C67.8975 32.208 68.0848 32.1132 68.2495 31.9718C68.4142 31.8306 68.5452 31.6391 68.6428 31.3973C68.7405 31.1561 68.7895 30.8505 68.7895 30.4812V26.4254H67.6792V30.4812C67.6792 30.628 67.6698 30.7624 67.6522 30.8845C67.6338 31.0066 67.6008 31.1127 67.5518 31.2021C67.5028 31.2915 67.4375 31.3626 67.3552 31.414C67.2728 31.4657 67.1652 31.4914 67.0315 31.4914C66.9028 31.4914 66.7962 31.4657 66.7115 31.414C66.6268 31.3626 66.5598 31.2915 66.5108 31.2021C66.4622 31.1127 66.4285 31.0066 66.4105 30.8845ZM73.1725 28.8445C73.0361 28.9856 72.8575 29.0563 72.6365 29.0563H72.1432V27.2888H72.6055C72.8831 27.2888 73.0811 27.3649 73.1995 27.517C73.3175 27.6691 73.3768 27.8917 73.3768 28.1846C73.3768 28.4835 73.3088 28.7033 73.1725 28.8445ZM73.6888 26.5762C73.4962 26.4758 73.2585 26.4254 72.9758 26.4254H71.0328V32.2407H72.1432V29.9197H72.7368C72.9992 29.9197 73.2378 29.884 73.4535 29.8133C73.6695 29.7429 73.8532 29.6371 74.0052 29.496C74.1568 29.3549 74.2752 29.1727 74.3595 28.9502C74.4445 28.7277 74.4868 28.4671 74.4868 28.1686C74.4868 27.9514 74.4612 27.7385 74.4098 27.529C74.3585 27.3202 74.2735 27.1344 74.1555 26.9712C74.0372 26.8081 73.8815 26.6766 73.6888 26.5762Z" fill="white"/>
</svg>
