<svg viewBox="0 0 32 32" xmlns="http://www.w3.org/2000/svg"><g fill="#fff"><path d="m16 32c8.8 0 16-7.2 16-16s-7.2-16-16-16-16 7.2-16 16 7.2 16 16 16zm0-1.3c8.1 0 14.7-6.6 14.7-14.7s-6.6-14.7-14.7-14.7-14.7 6.6-14.7 14.7 6.6 14.7 14.7 14.7z" fill-rule="evenodd"/><path d="m25.9 10.5c-.2-1-.9-1.8-1.8-2-1.6-.5-7.9-.5-7.9-.5s-6.4 0-7.9.5c-.9.3-1.6 1-1.8 2-.4 1.8-.4 5.5-.4 5.5s0 3.7.4 5.5c.2 1 .9 1.8 1.8 2 1.6.5 7.9.5 7.9.5s6.4 0 7.9-.5c.9-.3 1.6-1 1.8-2 .4-1.8.4-5.5.4-5.5s0-3.7-.4-5.5zm-11.8 8.9v-6.8l5.3 3.4s-5.3 3.4-5.3 3.4z"/></g></svg>